<svg width="363.575" height="363.575" viewBox="0 0 96.196 96.196" xml:space="preserve" xmlns:xlink="http://www.w3.org/1999/xlink" xmlns="http://www.w3.org/2000/svg"><defs><linearGradient id="a"><stop style="stop-color:#b70213;stop-opacity:1" offset="0"/><stop style="stop-color:#700413;stop-opacity:1" offset="1"/></linearGradient><linearGradient xlink:href="#a" id="d" x1="33.129" y1="67.671" x2="91.562" y2="6.588" gradientUnits="userSpaceOnUse"/><linearGradient id="c"><stop style="stop-color:#1592dc;stop-opacity:1" offset="0"/><stop style="stop-color:#1591dd;stop-opacity:1" offset=".245"/><stop style="stop-color:#0c98e9;stop-opacity:1" offset=".485"/><stop style="stop-color:#56e1fc;stop-opacity:1" offset=".782"/></linearGradient><linearGradient xlink:href="#c" id="b" gradientUnits="userSpaceOnUse" x1="23.985" y1="33.016" x2="14.049" y2=".776"/></defs><path style="fill:url(#d);fill-opacity:1;stroke-width:.323785" d="M22.065-4.604a3.969 3.969 0 0 0-1.984 3.437v76.593a3.969 3.969 0 0 0 3.968 3.969h76.593a3.969 3.969 0 0 0 3.969-3.969V-1.167a3.969 3.969 0 0 0-3.969-3.969H24.05a3.969 3.969 0 0 0-1.984.532zm32.883 30.727a4.796 4.796 0 0 1 1.067-.12h12.66a4.796 4.796 0 0 1 4.797 4.796v12.66a4.796 4.796 0 0 1-4.796 4.797h-12.66a4.796 4.796 0 0 1-4.797-4.796V30.799a4.796 4.796 0 0 1 3.73-4.676z" transform="rotate(15 4.175 .402) scale(.94547)"/><path style="fill:#fff;fill-opacity:.75;stroke-width:.191124" d="M66.362 17.358c-.37-.006-.698-.004-.981.001h-.001c-.568.011-1.272.044-1.983.13a9.976 9.976 0 0 0-1.584.31c-.426.126-.788.28-1.051.467a1.37 1.37 0 0 0-.29.267.785.785 0 0 0-.143.275c-.398 1.42-.84 3.123-1.293 4.942-.436 1.749-.87 3.557-1.262 5.22a578.297 578.297 0 0 0-1.296 5.634c1.868 1.853 3.617 3.176 5.254 4.095 1.686.946 3.256 1.464 4.724 1.682 1.483.22 2.875.137 4.19-.127 1.335-.267 2.597-.724 3.794-1.25 1.215-.532 2.38-1.143 3.479-1.7 1.13-.571 2.202-1.092 3.247-1.45a9.459 9.459 0 0 1 1.578-.407 6.104 6.104 0 0 1 1.568-.056 5.173 5.173 0 0 1 1.551.4c.363.157.716.359 1.063.606l.074-.2c.097-.266.212-.573.34-.921a67.13 67.13 0 0 0 .864-2.46c.603-1.841 1.258-4.194 1.61-6.798a.69.69 0 0 0-.02-.27 1.31 1.31 0 0 0-.147-.334c-.147-.246-.387-.52-.724-.818-.337-.298-.76-.61-1.259-.93a21.901 21.901 0 0 0-1.707-.98c-1.29-.673-2.81-1.346-4.444-1.982a73.159 73.159 0 0 0-5.298-1.82 32.786 32.786 0 0 0-2.436-.626l-3.098-.554a39.39 39.39 0 0 0-2.407-.256 32.97 32.97 0 0 0-1.912-.09zm17.109 20.877a4.723 4.723 0 0 0-.61.054 7.6 7.6 0 0 0-1.332.343c-.947.328-1.971.826-3.056 1.37-1.144.574-2.296 1.168-3.551 1.709-1.322.57-2.664 1.04-4.067 1.33a14.25 14.25 0 0 1-4.613.223c-1.787-.212-3.497-.771-5.144-1.614-.947-.435-2.63-1.374-3.616-1.823a4.534 4.534 0 0 1 .411.234 4.534 4.534 0 0 1 .029.02 4.534 4.534 0 0 1 .475.365 4.534 4.534 0 0 1 .145.134 4.534 4.534 0 0 1 .321.338 4.534 4.534 0 0 1 .124.144 4.534 4.534 0 0 1 .349.509 4.534 4.534 0 0 1 .067.127 4.534 4.534 0 0 1 .215.451 4.534 4.534 0 0 1 .072.187 4.534 4.534 0 0 1 .146.493 4.534 4.534 0 0 1 .031.122 4.534 4.534 0 0 1 .082.621 4.534 4.534 0 0 1 .004.175 4.534 4.534 0 0 1-.012.48 4.534 4.534 0 0 1-.018.19 4.534 4.534 0 0 1-.115.622L56.71 56.602a4.51 4.51 0 0 1-.314.801 4.534 4.534 0 0 1-.167.306c-.07.119-.152.23-.233.34a4.534 4.534 0 0 1-.243.293 4.534 4.534 0 0 1-.306.341c-.082.078-.16.159-.247.23a4.534 4.534 0 0 1-.462.328l-.03.017a4.534 4.534 0 0 1-.418.201 4.534 4.534 0 0 1-1.037.353 4.534 4.534 0 0 1-.505.1 4.534 4.534 0 0 1-.024.005c.05.675.218 1.445.302 2.104.23 1.811.617 3.56 1.212 5.145.192.514.414 1 .651 1.475l-.058-.089c.508 1.421.964 2.218 1.383 3.398.408 1.147.798 4.39.713 5.743-.181 2.907-.218 2.845-.57 4.96-.291 1.747-.862 3.765-1.788 6.298a28.307 28.307 0 0 1-.837 2.026l5.219 1.4c.085-.65.19-1.326.35-2.089.442-2.096.952-3.758 1.365-5.407.473-1.891 1.381-4.46 1.886-5.533.794-1.688 1.401-2.613 2.63-3.804 1.442-1.04 1.718-1.186 3.38-2.45 1.55-1.177 2.179-1.682 3.787-3.21 2.194-2.084 3.047-3.632 5.788-9.01 2.114-4.15 3.9-8.747 5.336-13.037a140.224 140.224 0 0 0 2.216-7.276c.133-.48.244-.89.335-1.224a3.87 3.87 0 0 0-.9-.707 3.07 3.07 0 0 0-1.075-.362 3.654 3.654 0 0 0-.578-.033zm-25.99 1.592a4.534 4.534 0 0 0-.139-.066 4.534 4.534 0 0 1 .038.021l.102.045zm-.515-.226c.04.013.12.055.168.074a4.534 4.534 0 0 1 .025.008 4.534 4.534 0 0 0-.193-.082z"/></svg>