<?xml version="1.0" encoding="UTF-8" standalone="no"?>
<!-- Created with Inkscape (http://www.inkscape.org/) -->

<svg
   width="256"
   height="256"
   viewBox="0 0 256 256"
   version="1.1"
   id="SVGRoot"
   sodipodi:docname="logo.svg"
   xml:space="preserve"
   inkscape:version="1.2.2 (b0a8486541, 2022-12-01)"
   inkscape:export-xdpi="96"
   inkscape:export-ydpi="96"
   xmlns:inkscape="http://www.inkscape.org/namespaces/inkscape"
   xmlns:sodipodi="http://sodipodi.sourceforge.net/DTD/sodipodi-0.dtd"
   xmlns:xlink="http://www.w3.org/1999/xlink"
   xmlns="http://www.w3.org/2000/svg"
   xmlns:svg="http://www.w3.org/2000/svg"><sodipodi:namedview
     id="namedview239"
     pagecolor="#505050"
     bordercolor="#ffffff"
     borderopacity="1"
     inkscape:showpageshadow="0"
     inkscape:pageopacity="0"
     inkscape:pagecheckerboard="1"
     inkscape:deskcolor="#505050"
     inkscape:document-units="px"
     showgrid="true"
     inkscape:zoom="2"
     inkscape:cx="81.75"
     inkscape:cy="154.5"
     inkscape:window-width="1920"
     inkscape:window-height="1017"
     inkscape:window-x="0"
     inkscape:window-y="0"
     inkscape:window-maximized="1"
     inkscape:current-layer="layer1"><inkscape:grid
       type="xygrid"
       id="grid245"
       originx="0"
       originy="0" /></sodipodi:namedview><defs
     id="defs234"><linearGradient
       inkscape:collect="always"
       id="linearGradient110627"><stop
         style="stop-color:#c02701;stop-opacity:1;"
         offset="0"
         id="stop110623" /><stop
         style="stop-color:#7b0619;stop-opacity:1;"
         offset="1"
         id="stop110625" /></linearGradient><radialGradient
       inkscape:collect="always"
       xlink:href="#linearGradient110627"
       id="radialGradient110629"
       cx="128"
       cy="128"
       fx="128"
       fy="128"
       r="128"
       gradientUnits="userSpaceOnUse" /></defs><g
     inkscape:label="Layer 1"
     inkscape:groupmode="layer"
     id="layer1"><path
       id="rect21496"
       clip-path="none"
       style="display:inline;fill:url(#radialGradient110629);fill-opacity:1;stroke:none;stroke-width:0.780206;stroke-opacity:1"
       d="M 68.31262,0 0,187.68738 187.68738,256 256,68.31262 Z m 70.31586,30.906981 43.63983,15.883602 c 4.80277,1.748063 7.84685,5.888428 9.12971,12.421946 1.09001,5.626548 0.69276,11.02625 -1.18976,16.198463 l -2.35555,-0.857348 c 0.82514,-7.439808 -2.17932,-12.404123 -9.01403,-14.891754 -7.75832,-2.823798 -13.40234,0.613527 -16.93208,10.311427 l -18.55677,50.984263 50.84536,18.5062 c 9.69791,3.52975 15.99285,1.32257 18.88388,-6.62047 2.45401,-6.74235 0.56541,-12.18836 -5.6642,-16.33849 l 0.8068,-2.21665 c 5.35693,1.94977 9.81072,5.08621 13.36153,9.41189 4.1216,5.05643 5.2751,10.07838 3.45978,15.06587 l -15.78353,43.36491 c -1.81529,4.98749 -5.92696,8.0931 -12.33451,9.31721 -5.50057,1.03127 -10.92843,0.57107 -16.28538,-1.37869 l 0.75625,-2.07774 c 7.4398,0.82513 12.42105,-2.22586 14.94231,-9.15294 2.8238,-7.75832 -0.61353,-13.40234 -10.31143,-16.93208 l -50.84537,-18.50621 -18.55675,50.98427 c -3.49614,9.60554 -1.36509,15.82005 6.39323,18.64385 6.83472,2.48763 12.32726,0.61598 16.47738,-5.61365 l 2.35554,0.85735 c -1.91614,5.26458 -5.08271,9.65632 -9.50075,13.17351 -5.09003,4.21398 -10.08331,5.42899 -14.97844,3.6473 L 73.731692,209.20943 c -4.802769,-1.74807 -7.846849,-5.88843 -9.129715,-12.42197 -1.089999,-5.62653 -0.692765,-11.02624 1.189767,-16.19844 l 2.355543,0.85733 c -0.825133,7.43982 2.17932,12.40413 9.014032,14.89176 7.75832,2.8238 13.385407,-0.56698 16.881537,-10.17252 l 18.556754,-50.98427 -50.845362,-18.5062 c -9.697903,-3.52974 -15.958954,-1.41564 -18.782753,6.34269 -2.521248,6.92706 -0.666526,12.46614 5.563084,16.61628 l -0.756237,2.07773 c -5.449295,-1.98338 -9.90309,-5.11981 -13.361531,-9.41188 -4.155226,-4.96406 -5.308713,-9.98602 -3.459797,-15.06587 L 46.740548,73.869159 c 1.815299,-4.987491 5.926976,-8.093092 12.334515,-9.317217 5.50057,-1.031252 10.92844,-0.571063 16.285376,1.378702 l -0.806793,2.216643 c -7.439811,-0.825133 -12.387187,2.132784 -14.841202,8.875134 -2.89103,7.94304 0.512418,13.680136 10.210319,17.209888 L 120.76813,112.7385 139.32488,61.754248 c 3.52975,-9.697902 1.41564,-15.958955 -6.34268,-18.782753 -6.74235,-2.454015 -12.23489,-0.582354 -16.47738,5.61364 l -2.35554,-0.857347 c 1.91614,-5.264575 5.0827,-9.656325 9.50076,-13.173511 5.09002,-4.21397 10.08331,-5.428978 14.97844,-3.647296 z" /></g></svg>
