<?xml version="1.0" encoding="UTF-8" standalone="no"?>
<!-- Created with Inkscape (http://www.inkscape.org/) -->

<svg
   width="256"
   height="256"
   viewBox="0 0 256 256"
   version="1.1"
   id="SVGRoot"
   sodipodi:docname="vinegar.svg"
   xml:space="preserve"
   inkscape:version="1.2.2 (b0a8486541, 2022-12-01)"
   inkscape:export-xdpi="96"
   inkscape:export-ydpi="96"
   xmlns:inkscape="http://www.inkscape.org/namespaces/inkscape"
   xmlns:sodipodi="http://sodipodi.sourceforge.net/DTD/sodipodi-0.dtd"
   xmlns:xlink="http://www.w3.org/1999/xlink"
   xmlns="http://www.w3.org/2000/svg"
   xmlns:svg="http://www.w3.org/2000/svg"><sodipodi:namedview
     id="namedview239"
     pagecolor="#505050"
     bordercolor="#ffffff"
     borderopacity="1"
     inkscape:showpageshadow="0"
     inkscape:pageopacity="0"
     inkscape:pagecheckerboard="1"
     inkscape:deskcolor="#505050"
     inkscape:document-units="px"
     showgrid="true"
     inkscape:zoom="2"
     inkscape:cx="82.75"
     inkscape:cy="154.5"
     inkscape:window-width="1920"
     inkscape:window-height="1017"
     inkscape:window-x="0"
     inkscape:window-y="0"
     inkscape:window-maximized="1"
     inkscape:current-layer="layer1"><inkscape:grid
       type="xygrid"
       id="grid245"
       originx="0"
       originy="0" /></sodipodi:namedview><defs
     id="defs234"><linearGradient
       inkscape:collect="always"
       id="linearGradient110627"><stop
         style="stop-color:#c02701;stop-opacity:1;"
         offset="0"
         id="stop110623" /><stop
         style="stop-color:#7b0619;stop-opacity:1;"
         offset="1"
         id="stop110625" /></linearGradient><radialGradient
       inkscape:collect="always"
       xlink:href="#linearGradient110627"
       id="radialGradient110629"
       cx="128"
       cy="128"
       fx="128"
       fy="128"
       r="128"
       gradientUnits="userSpaceOnUse"
       gradientTransform="rotate(-5.5,128,128)" /></defs><g
     inkscape:label="Layer 1"
     inkscape:groupmode="layer"
     id="layer1"><path
       id="rect21496"
       clip-path="none"
       style="display:inline;fill:url(#radialGradient110629);fill-opacity:1;stroke:none;stroke-width:0.780206;stroke-opacity:1"
       d="M 56.319153,6.3100685 6.3100685,199.68085 199.68085,249.68993 249.68993,56.319153 Z M 129.2736,30.335284 174.23489,41.963067 c 4.9482,1.27969 8.37511,5.109232 10.27827,11.489714 1.62428,5.496173 1.74639,10.909089 0.36827,16.237922 l -2.42688,-0.627631 c 0.10827,-7.484643 -3.35816,-12.138137 -10.39984,-13.959239 -7.99325,-2.067196 -13.28183,1.89526 -15.86582,11.886824 l -13.58472,52.528133 52.38503,13.54769 c 9.99157,2.58399 16.04598,-0.21637 18.16239,-8.39993 1.79649,-6.94652 -0.60539,-12.18645 -7.2041,-15.72039 l 0.59064,-2.28377 c 5.51914,1.42736 10.25304,4.12248 14.2021,8.08791 4.58726,4.63812 6.21679,9.52639 4.88786,14.66491 l -11.55453,44.67805 c -1.32891,5.13852 -5.12398,8.62392 -11.38471,10.45653 -5.3764,1.55372 -10.82338,1.61588 -16.34255,0.18854 l 0.55363,-2.14066 c 7.48463,0.10826 12.15052,-3.40612 13.99625,-10.54296 2.06719,-7.99325 -1.89527,-13.28183 -11.88683,-15.86583 l -52.38503,-13.54769 -13.58469,52.52813 c -2.5594,9.89641 0.15747,15.87806 8.15073,17.94526 7.04168,1.82109 12.32955,-0.56837 15.86348,-7.1671 l 2.42686,0.62764 c -1.40273,5.42399 -4.13379,10.09902 -8.19439,14.02347 -4.66269,4.68243 -9.51653,6.37043 -14.5599,5.06613 L 81.765108,214.03695 c -4.948199,-1.2797 -8.3751,-5.10924 -10.278273,-11.48974 -1.624259,-5.49616 -1.746394,-10.90908 -0.368262,-16.2379 l 2.426871,0.62761 c -0.108261,7.48466 3.35817,12.13814 10.399847,13.95925 7.99325,2.06719 13.269442,-1.84731 15.828827,-11.74372 L 113.35881,136.62432 60.973788,123.07664 c -9.991564,-2.584 -16.021164,0.12046 -18.088359,8.11372 -1.845713,7.13683 0.531367,12.47264 7.130072,16.00659 l -0.553614,2.14065 C 43.84758,147.88564 39.113676,145.19053 35.25978,141.2497 30.6479,136.70675 29.018389,131.81847 30.371912,126.58479 L 41.926439,81.906742 c 1.328912,-5.138521 5.124001,-8.62391 11.384714,-10.456535 5.376406,-1.553711 10.823394,-1.615878 16.342544,-0.18853 l -0.590623,2.283766 c -7.484645,-0.10826 -12.12574,3.310225 -13.92223,10.256736 -2.116415,8.183568 1.82124,13.568047 11.812806,16.152041 l 52.38502,13.54769 13.58469,-52.528122 c 2.58401,-9.991565 -0.12046,-16.021165 -8.11371,-18.08836 -6.94652,-1.796493 -12.23439,0.592988 -15.86349,7.167081 l -2.42686,-0.627631 c 1.40273,-5.423992 4.13378,-10.099024 8.19439,-14.02347 4.6627,-4.682427 9.51654,-6.370427 14.55991,-5.066124 z" /></g></svg>
